# xmcd
#
# Track frame offsets:
#	150
#	17300
#	34262
#	45675
#	61050
#	76275
#	88050
#	112250
#	129975
#	144712
#	158025
#	174525
#	191737
#	206900
#
# Disc length: 2964 seconds
#
# Revision: 0
# Processed by: cddbd v1.5.2PL0 Copyright (c) Steve Scherf et al.
# Submitted via: audiograbber 1.83.01
#
DISCID=bf0b920e
DTITLE=新格文化 - 金韻民歌經典系列4傷痕典事
DYEAR=1990
DGENRE=Other
TTITLE0=齊豫 - 歡顏
TTITLE1=王海玲 - 忘了我是誰
TTITLE2=包美聖 - 長空下的獨白
TTITLE3=楊芳儀許\曉菁 - 就要揮別
TTITLE4=陳明韶 - 誰來海邊
TTITLE5=包美聖 - 小秘密
TTITLE6=李曉雲 - 隔夜茶
TTITLE7=木吉他 - 散場電影
TTITLE8=范廣慧 - 再別康橋
TTITLE9=王海玲 - 不要說再見
TTITLE10=包美聖 - 你在日落深處等我
TTITLE11=張清芳 - 曾經擁有過
TTITLE12=楊耀東 - 怎麼能夠
TTITLE13=張清芳 - 能不能
EXTD=
EXTT0=
EXTT1=
EXTT2=
EXTT3=
EXTT4=
EXTT5=
EXTT6=
EXTT7=
EXTT8=
EXTT9=
EXTT10=
EXTT11=
EXTT12=
EXTT13=
PLAYORDER=
